<?xml version="1.0" encoding="UTF-8"?>
<svg width="16px" height="16px" viewBox="0 0 16 16" version="1.1" xmlns="http://www.w3.org/2000/svg" xmlns:xlink="http://www.w3.org/1999/xlink">
    <title>s</title>
    <g id="Desktop" stroke="none" stroke-width="1" fill="none" fill-rule="evenodd">
        <g id="Satilik-Gayrimenkuller---Teklif-Formu" transform="translate(-938.000000, -935.000000)" fill="#000000" fill-rule="nonzero">
            <path d="M939.646206,941.749984 C939.823512,941.749984 939.975642,941.625534 940.012996,941.452194 C940.607538,938.691489 943.059894,936.624996 945.999981,936.624996 C948.485754,936.624996 950.623169,938.102562 951.583586,940.228167 L947.633919,940.134143 C947.423378,940.129138 947.249978,940.298419 947.249978,940.509051 L947.249978,941.374985 C947.249978,941.582077 947.417885,941.749984 947.624977,941.749984 L953.624963,941.749984 C953.832055,941.749984 953.999962,941.582077 953.999962,941.374985 L953.999962,935.374999 C953.999962,935.167907 953.832055,935 953.624963,935 L952.758998,935 C952.548397,935 952.379086,935.17337 952.38409,935.383941 L952.457424,938.464408 C951.069091,936.376339 948.69547,935 945.999981,935 C942.212911,935 939.060392,937.716363 938.384246,941.306992 C938.340881,941.537277 938.518859,941.749984 938.753203,941.749984 L939.646206,941.749984 Z M939.240964,950.499963 C939.451565,950.499963 939.620876,950.326593 939.615871,950.116022 L939.542538,947.035555 C940.930871,949.123624 943.304492,950.499963 945.999981,950.499963 C949.787051,950.499963 952.93957,947.7836 953.615716,944.192971 C953.659081,943.962686 953.481103,943.749979 953.246759,943.749979 L952.353756,943.749979 C952.176449,943.749979 952.02432,943.87443 951.986966,944.047769 C951.392424,946.808474 948.940068,948.874967 945.999981,948.874967 C943.514178,948.874967 941.376792,947.397401 940.416376,945.271796 L944.366043,945.36582 C944.576583,945.370825 944.749984,945.201544 944.749984,944.990912 L944.749984,944.124978 C944.749984,943.917886 944.582077,943.749979 944.374985,943.749979 L938.374999,943.749979 C938.167907,943.749979 938,943.917886 938,944.124978 L938,950.124964 C938,950.332056 938.167907,950.499963 938.374999,950.499963 L939.240964,950.499963 Z" id="s"></path>
        </g>
    </g>
</svg>