<svg xmlns="http://www.w3.org/2000/svg" xmlns:xlink="http://www.w3.org/1999/xlink" width="109" height="38" xmlns:v="https://vecta.io/nano"><defs><path id="A" d="M0 .035h37.507V37.62H0z"/></defs><g fill-rule="evenodd"><mask id="B" fill="#fff"><use xlink:href="#A"/></mask><path d="M16.125 7.371a.55.55 0 0 0-.001.775l2.243 2.249c.213.214.56.214.771-.001l2.243-2.248a.55.55 0 0 0 .001-.774l-2.244-2.249c-.211-.213-.558-.213-.771 0l-2.242 2.248zm1.562 7.669L11.49 8.828c-.59-.59-.59-1.548-.001-2.138L17.687.478c.589-.59 1.543-.59 2.134 0l6.197 6.211c.588.591.588 1.548 0 2.139L19.82 15.04a1.51 1.51 0 0 1-2.134 0h0z" fill="#d12580" mask="url(#B)"/><g fill="#25477b"><path d="M19.822 37.187c-.589.59-1.544.59-2.134 0L.442 19.9c-.589-.591-.589-1.549 0-2.139l6.198-6.211c.588-.591 1.544-.591 2.132 0l6.198 6.212c.589.589.589 1.546 0 2.138l-3.753 3.761c-.347.569-.279 1.32.213 1.812l6.324 6.338c.553.555 1.451.555 2.004 0l1.31-1.312 5.074-5.086c.445-.473.508-1.171.188-1.708l-3.792-3.802c-.589-.591-.589-1.548 0-2.139l6.196-6.211c.59-.59 1.545-.591 2.134 0l6.198 6.212c.589.591.589 1.548 0 2.138L19.822 37.187zm7.35-18.739c-.214.213-.214.56 0 .774l2.243 2.248c.213.214.56.214.771 0l2.244-2.248a.55.55 0 0 0 0-.774L30.186 16.2c-.213-.214-.558-.214-.771 0l-2.242 2.248zm-16.838.77a.55.55 0 0 0 0-.775l-2.243-2.248c-.213-.215-.56-.215-.772-.001l-2.243 2.249a.55.55 0 0 0 0 .775l2.243 2.248c.213.214.56.214.772 0l2.243-2.248zm8.041 2.703c.214-.214.558-.213.772 0l2.244 2.249a.55.55 0 0 1-.001.774l-2.243 2.249c-.213.213-.558.213-.772-.001l-2.243-2.247c-.214-.214-.214-.56 0-.774l2.243-2.249z" mask="url(#B)"/><path d="M58.092 14.787a.57.57 0 0 0-.547-.413h-2.97a.57.57 0 0 0-.533.373l-.646 2.179a.57.57 0 0 1-.418.393l-2.161.01a.57.57 0 0 1-.504-.566.56.56 0 0 1 .026-.17L54.448 3.78a.57.57 0 0 1 .541-.394h2.14c.252 0 .466.165.539.392l4.101 12.8a.62.62 0 0 1 .03.184.57.57 0 0 1-.567.569h-1.978a.57.57 0 0 1-.547-.419l-.613-2.127zm-3.166-3.018h2.295L56.09 7.846l-1.164 3.922zm28.514-.035l-.299.002c-.255 0-.456.269-.456.61v.409s-.002 0-.002 3.371v.597c0 .342-.2.61-.456.61h-1.89c-.255 0-.456-.268-.456-.61V3.995c0-.342.2-.609.456-.609l7.688.004c.342 0 .609.2.609.456v1.721c0 .255-.267.455-.609.455l-4.884.004c-.255 0-.456.267-.456.609v1.977c0 .229.214.412.504.448h3.82c.341 0 .608.201.608.457v1.761c0 .255-.268.456-.608.456H83.44zm-14.486-.998l4.757 5.929c.139.163.182.339.115.481-.051.115-.165.186-.296.186h-2.408c-.36 0-.566-.244-.805-.526l-1.39-1.698-2.354-2.89-.891 1.171v3.332c0 .342-.199.61-.454.61H63.25c-.257 0-.455-.268-.455-.61V3.995c0-.342.199-.609.455-.609h1.978c.255 0 .454.268.454.609V8.59s.021.183.109.183c.041 0 .163-.031.41-.324l2.953-3.523.833-1.017c.24-.281.446-.523.805-.523H73.2a.44.44 0 0 1 .383.242c.037.079.073.239-.087.427l-4.592 5.407c-.494.523-.009 1.194.051 1.274zm8.355-7.35c.257 0 .456.268.456.609v12.727c0 .342-.199.61-.454.61h-1.979c-.256 0-.455-.268-.455-.61V3.995c0-.342.199-.609.455-.609h1.978zM44.524 16.934l-4.1-12.729a.59.59 0 0 1-.027-.176.57.57 0 0 1 .567-.569l1.956-.002c.28.002.496.174.566.411l2.614 8.988 2.691-8.991a.57.57 0 0 1 .544-.406h1.973c.313 0 .566.255.566.569 0 .061-.008.119-.026.175l-4.106 12.738a.57.57 0 0 1-.539.389h-2.138a.57.57 0 0 1-.541-.398h0zm28.728 3.301c.342 0 .608.2.608.457v1.982c0 .256-.266.457-.608.457h-3.187c-.305.002-.551.251-.55.558l-.001 9.882c0 .342-.2.61-.454.61h-1.98c-.256 0-.455-.268-.455-.61l-.001-9.882c-.007-.315-.25-.556-.55-.558h-3.188c-.34 0-.608-.201-.608-.456v-1.984c0-.257.267-.457.608-.457h10.365zm34.676 0c.255 0 .456.268.456.61v12.727c0 .342-.2.61-.454.61h-1.98c-.256 0-.454-.268-.454-.61V26.34l-3.074 5.046c-.137.241-.627.245-.787 0l-3.086-5.063v7.248c0 .342-.2.61-.455.61h-1.979c-.255 0-.455-.268-.455-.61V20.844c0-.342.2-.61.455-.61l1.432.003c.203 0 .495.169.63.48l3.806 6.836 3.825-6.741c.097-.35.423-.574.666-.574h1.445l.01-.003zM88.49 31.545c.342 0 .608.2.608.455v1.721c0 .256-.266.457-.608.457l-2.653.003h-5.034c-.257 0-.456-.268-.456-.61V20.844c0-.342.2-.61.456-.61h1.888c.257 0 .456.268.456.61v.597l.002 3.37v6.121c0 .342.2.609.456.609h1.115l3.77.004zm-41.046-3.96l4.757 5.929c.138.163.181.339.114.481-.052.115-.165.186-.296.186H49.61c-.358 0-.564-.244-.804-.525l-1.39-1.698-2.355-2.89-.889 1.171v3.333c0 .342-.2.61-.456.61h-1.978c-.255 0-.454-.268-.454-.61V20.844c0-.342.199-.61.454-.61h1.978c.255 0 .456.268.456.61v4.595s.019.183.109.183c.041 0 .164-.031.41-.324l2.951-3.522.834-1.017c.239-.282.445-.523.805-.523h2.408c.157 0 .319.102.384.242.035.079.072.239-.087.427l-4.593 5.407c-.493.523-.01 1.194.051 1.275zm45.532-7.351c.255 0 .456.268.456.61v12.727c0 .342-.2.61-.456.61h-1.978c-.255 0-.455-.268-.455-.61V20.844c0-.342.2-.61.455-.61h1.978zm-15.201 0c.256 0 .456.268.456.61v12.727c0 .342-.2.61-.456.61h-1.978c-.256 0-.456-.268-.456-.61V20.844c0-.342.2-.61.456-.61h1.978zm-20.729 8.383h2.294l-1.131-3.922-1.163 3.922zm3.165 3.018a.57.57 0 0 0-.547-.413h-2.971a.57.57 0 0 0-.532.373l-.646 2.179a.57.57 0 0 1-.421.393l-2.159.01a.57.57 0 0 1-.506-.565.58.58 0 0 1 .027-.171l4.109-12.813a.57.57 0 0 1 .54-.394h2.141a.57.57 0 0 1 .54.392l4.1 12.8c.019.066.029.124.029.186a.57.57 0 0 1-.568.568h-1.978a.57.57 0 0 1-.547-.418l-.613-2.127z"/></g></g></svg>